<?xml version="1.0" standalone="no"?>
<!DOCTYPE svg PUBLIC "-//W3C//DTD SVG 20010904//EN"
 "http://www.w3.org/TR/2001/REC-SVG-20010904/DTD/svg10.dtd">
<svg version="1.0" xmlns="http://www.w3.org/2000/svg"
 width="860.000000pt" height="949.000000pt" viewBox="0 0 860.000000 949.000000"
 preserveAspectRatio="xMidYMid meet">

<g transform="translate(0.000000,949.000000) scale(0.100000,-0.100000)"
fill="#000000" stroke="none">
<path d="M3810 9064 c-19 -2 -87 -9 -150 -15 -163 -16 -430 -66 -570 -108
-128 -38 -176 -53 -225 -71 -27 -10 -79 -28 -115 -40 -36 -12 -69 -26 -75 -31
-5 -5 -15 -9 -23 -9 -13 0 -201 -87 -297 -137 -77 -40 -154 -82 -181 -98 -16
-10 -52 -32 -79 -49 -28 -17 -57 -35 -66 -41 -26 -16 -91 -62 -134 -94 -22
-17 -51 -38 -65 -48 -14 -9 -44 -33 -66 -53 -23 -19 -73 -59 -111 -88 -80 -61
-400 -382 -458 -460 -22 -30 -55 -71 -73 -92 -64 -75 -194 -262 -284 -411 -42
-69 -220 -428 -243 -489 -204 -549 -269 -891 -269 -1415 0 -463 49 -762 194
-1190 79 -231 85 -247 134 -350 24 -49 53 -110 65 -135 40 -85 100 -191 166
-295 17 -27 35 -57 39 -65 3 -8 20 -33 36 -55 17 -22 46 -63 65 -91 19 -28 56
-76 82 -107 27 -31 64 -78 83 -104 43 -59 401 -424 452 -461 20 -15 70 -54
110 -87 40 -33 82 -67 94 -75 12 -8 57 -40 100 -70 44 -30 87 -59 96 -65 9 -5
54 -32 100 -60 185 -111 392 -214 553 -274 33 -13 69 -27 80 -31 71 -29 137
-51 185 -64 30 -8 75 -21 100 -30 86 -29 337 -83 450 -96 41 -5 129 -16 195
-24 139 -18 556 -21 705 -6 163 17 318 42 502 81 114 24 390 110 588 183 63
24 382 182 458 228 34 21 64 38 66 38 10 0 284 191 387 270 18 14 161 153 318
309 l286 283 75 -11 c168 -25 440 -7 522 34 17 8 35 15 39 15 26 0 138 62 255
141 51 34 159 150 209 224 150 222 211 511 154 737 -11 46 -25 100 -30 120 -5
20 -18 61 -30 90 -12 29 -29 78 -39 108 -10 30 -29 80 -44 109 -14 30 -26 58
-26 63 0 10 -61 141 -176 376 l-94 193 0 187 c0 256 -26 488 -89 782 -40 192
-148 518 -228 690 -16 36 -41 90 -54 120 -13 30 -35 75 -50 100 -14 25 -42 77
-63 115 -42 76 -213 338 -258 395 -15 19 -45 57 -65 84 -52 66 -539 562 -583
592 -19 13 -55 40 -80 59 -85 66 -125 94 -195 141 -125 83 -173 114 -180 114
-3 0 -25 13 -48 28 -52 35 -370 192 -389 192 -8 0 -18 4 -24 9 -36 33 -435
162 -624 202 -324 68 -439 81 -770 84 -157 2 -301 1 -320 -1z m610 -185 c148
-13 373 -52 525 -90 1276 -322 2271 -1312 2598 -2584 50 -194 121 -654 104
-671 -2 -3 -30 41 -62 98 -119 214 -226 387 -247 402 -31 22 -80 20 -105 -3
-45 -42 -324 -535 -519 -916 -304 -596 -434 -950 -434 -1186 0 -135 44 -317
108 -444 72 -144 235 -323 362 -397 35 -21 69 -39 74 -41 17 -6 -57 -91 -223
-257 -971 -970 -2386 -1296 -3691 -852 -897 306 -1663 992 -2069 1853 -534
1132 -438 2463 253 3503 627 944 1652 1531 2786 1596 151 9 367 4 540 -11z
m2902 -3162 c457 -803 700 -1322 767 -1630 32 -149 25 -246 -29 -408 -74 -223
-246 -406 -460 -491 -195 -78 -451 -76 -632 3 -247 108 -406 297 -472 558 -43
173 -33 302 42 521 101 292 302 711 567 1185 163 290 178 314 186 309 4 -2 18
-23 31 -47z"/>
<path d="M3194 6781 c-12 -4 -63 -42 -113 -86 -286 -249 -567 -393 -926 -474
-114 -26 -144 -36 -162 -57 -51 -57 -13 -144 63 -144 52 0 275 54 396 96 230
80 498 233 693 395 121 102 155 141 155 183 0 60 -51 101 -106 87z"/>
<path d="M4902 6775 c-36 -16 -52 -42 -52 -87 0 -28 11 -43 72 -102 199 -188
488 -366 753 -461 121 -44 364 -105 417 -105 53 0 88 35 88 88 0 61 -27 78
-176 112 -137 31 -281 77 -404 129 -153 66 -396 226 -532 351 -87 80 -119 94
-166 75z"/>
<path d="M2141 5573 c-63 -22 -134 -96 -156 -162 -60 -183 65 -360 255 -361
153 0 272 118 272 270 0 191 -187 318 -371 253z"/>
<path d="M5815 5575 c-55 -21 -110 -67 -142 -122 -36 -63 -44 -171 -16 -234
85 -191 324 -230 461 -74 23 26 46 64 52 84 13 49 13 135 -2 183 -15 50 -79
123 -132 150 -53 27 -165 34 -221 13z"/>
<path d="M3856 3839 c-95 -11 -253 -45 -344 -76 -158 -52 -407 -186 -432 -233
-26 -48 -5 -105 45 -126 41 -17 57 -12 151 49 95 61 143 84 264 127 179 64
306 84 520 85 206 0 328 -18 503 -76 100 -33 271 -112 351 -160 64 -40 111
-41 143 -4 15 17 23 39 23 62 0 51 -43 88 -192 161 -203 101 -381 157 -591
187 -108 16 -327 18 -441 4z"/>
</g>
</svg>
